<svg id="Layer_1" data-name="Layer 1" xmlns="http://www.w3.org/2000/svg" xmlns:xlink="http://www.w3.org/1999/xlink" viewBox="0 0 89.55 71"><defs><style>.cls-1{fill:url(#linear-gradient);}.cls-2{fill:url(#linear-gradient-2);}.cls-3{fill:url(#linear-gradient-3);}.cls-4{fill:url(#linear-gradient-4);}.cls-5{opacity:0.93;fill:url(#linear-gradient-5);}.cls-6{font-size:18.9px;font-family:BPGMrgvlovaniCaps2010, BPG Mrgvlovani Caps 2010;}.cls-6,.cls-7{fill:#fff;}</style><linearGradient id="linear-gradient" x1="30.51" y1="49.81" x2="71.19" y2="49.81" gradientUnits="userSpaceOnUse"><stop offset="0" stop-color="#999"/><stop offset="1"/></linearGradient><linearGradient id="linear-gradient-2" x1="25.02" y1="33.74" x2="65.7" y2="33.74" xlink:href="#linear-gradient"/><linearGradient id="linear-gradient-3" x1="30.51" y1="50.09" x2="71.19" y2="50.09" xlink:href="#linear-gradient"/><linearGradient id="linear-gradient-4" x1="30.51" y1="52.58" x2="71.19" y2="52.58" xlink:href="#linear-gradient"/><linearGradient id="linear-gradient-5" x1="30.51" y1="52.79" x2="56.26" y2="52.79" xlink:href="#linear-gradient"/></defs><title>Untitled-2</title><path className="cls-1" d="M37.36,39.81a12.83,12.83,0,0,0-4,3,18.06,18.06,0,0,0-.47,6.43c.72,7.12,5.17,12.57,9.92,12.14,2.38-.21,4.39-1.86,5.71-4.36a20,20,0,0,1-4.21.32,7.77,7.77,0,0,1-5.46-1.9,6.32,6.32,0,0,1-2.08-4.89A6.54,6.54,0,0,1,39,45.53a8.07,8.07,0,0,1,5.66-2,9.09,9.09,0,0,1,3.35.56,7.36,7.36,0,0,1,1.72,1,15.47,15.47,0,0,0-3.5-6.87c-.53,0-1.06-.07-1.61-.07A15.85,15.85,0,0,0,37.36,39.81Z" transform="translate(-5.49 -15)"/><polygon className="cls-2" points="55.69 35.66 58.34 42.17 65.7 25.31 55.69 35.66"/><path className="cls-3" d="M60.28,51.64a.46.46,0,0,1-.74-.11L55.88,43.2a10.06,10.06,0,0,0-4.62-3.64,14.38,14.38,0,0,0-3.74-1.14,17.33,17.33,0,0,1,3.4,8l.11.17.25.57a1,1,0,0,0,.11.25L57.64,61.5a.44.44,0,0,0,.41.26h3.38a.44.44,0,0,0,.41-.25l1.52-3.3-2.8-6.87Z" transform="translate(-5.49 -15)"/><path className="cls-4" d="M42.86,61.41c-4.75.43-9.19-5-9.92-12.14a18.06,18.06,0,0,1,.47-6.43,12,12,0,0,0-1.09,1.46l-.21.36A19.35,19.35,0,0,0,32,49.35c.77,7.6,5.67,13.4,10.93,12.93,2.91-.26,5.33-2.4,6.78-5.54a10.31,10.31,0,0,1-1.16.32C47.25,59.55,45.24,61.2,42.86,61.41Z" transform="translate(-5.49 -15)"/><path className="cls-5" d="M51.08,56.18a11.23,11.23,0,0,1-1.35.56,10.31,10.31,0,0,1-1.16.32c-1.32,2.49-3.33,4.14-5.71,4.36-4.75.43-9.19-5-9.92-12.14a18.06,18.06,0,0,1,.47-6.43,12,12,0,0,0-1.09,1.46l-.21.36a11.44,11.44,0,0,0-1.6,5.89,11.61,11.61,0,0,0,3.71,8.55q3.71,3.65,10.27,3.65a13.9,13.9,0,0,0,8.72-2.6Z" transform="translate(-5.49 -15)"/><text className="cls-6" transform="matrix(0, -0.94, 1, 0, 16.35, 46.4)">MY</text><polygon className="cls-7" points="52.78 71 49.26 67.68 50.31 66.69 52.78 69.02 87.44 36.41 50.94 2.05 48.81 4.05 47.76 3.06 50.94 0.07 89.55 36.41 52.78 71"/><polygon className="cls-7" points="45.28 0 20.61 23.22 20.61 25.2 45.28 1.98 81.79 36.33 47.13 68.95 20.61 44 20.61 45.97 47.13 70.93 83.89 36.33 45.28 0"/></svg>